<?xml version="1.0" encoding="utf-8"?>
<!DOCTYPE svg PUBLIC "-//W3C//DTD SVG 1.1//EN" "http://www.w3.org/Graphics/SVG/1.1/DTD/svg11.dtd">
<svg version="1.1" id="Layer_1" xmlns="http://www.w3.org/2000/svg" xmlns:xlink="http://www.w3.org/1999/xlink" x="0px" y="0px" width="480px" height="144px" viewBox="0 0 480 144" enable-background="new 0 0 480 144" xml:space="preserve">
	<style type="text/css">
		#dat * { fill:#0033A7; }
		#solutions * { fill:#666666; }
		#swoosh * { fill:#FF6600; }
	</style>
	<g id="content">
		<g id="dat">
			<path d="M18.757,23.513h35.71c26.96,0,45.857,21.175,41.533,48.405c-4.333,27.23-30.039,48.439-56.887,48.439 H3.447L18.757,23.513z M31.985,99.039h5.648c14.989,0,29.156-8.24,32.159-27.121c2.736-17.335-7.167-27.094-23.322-27.094h-5.932 L31.985,99.039z M160.247,53.51l-36.312,66.848H98.774l52.563-96.845h27.492l21.128,96.845h-25.096L160.247,53.51z M259.4,120.357h-25.176l11.963-75.534h-32.796l3.387-21.311h87.313l-3.362,21.311h-29.386L259.4,120.357z"/>
			<path d="M315.198,36.377c-1.896,0-3.45-0.601-4.673-1.798c-1.225-1.199-1.832-2.726-1.832-4.581 c0-1.81,0.627-3.334,1.884-4.573c1.257-1.243,2.819-1.864,4.69-1.864c1.857,0,3.4,0.601,4.643,1.801 c1.238,1.202,1.857,2.73,1.857,4.584c0,1.816-0.629,3.342-1.887,4.577C318.627,35.757,317.068,36.377,315.198,36.377z M315.234,24.373c-1.635,0-2.985,0.537-4.047,1.607c-1.064,1.072-1.598,2.405-1.598,4.001c0,1.606,0.543,2.949,1.624,4.022 c1.086,1.075,2.425,1.612,4.021,1.612c1.566,0,2.894-0.541,3.982-1.621c1.088-1.079,1.633-2.416,1.633-4.013 c0-1.596-0.541-2.929-1.623-4.001C318.152,24.91,316.818,24.373,315.234,24.373z M316.65,33.964l-0.797-1.945 c-0.36-0.886-0.766-1.33-1.215-1.33h-0.641v3.274h-1.467V25.84h2.46c1.021,0,1.794,0.201,2.319,0.601 c0.527,0.401,0.795,0.949,0.795,1.646c0,0.536-0.179,1.001-0.521,1.392c-0.346,0.393-0.833,0.659-1.46,0.803v0.033 c0.444,0.065,0.877,0.543,1.306,1.436l1.045,2.211h-1.824V33.964z M313.999,27.113v2.357h1.011c0.469,0,0.833-0.104,1.102-0.319 c0.27-0.214,0.402-0.507,0.402-0.881c0-0.467-0.136-0.776-0.406-0.931c-0.271-0.15-0.703-0.226-1.295-0.226H313.999z"/>
		</g>
		<g id="swoosh">
			<path d="M133.577,106.498c67.565-29.284,143.017-44.106,222.474-40.82l2.088-12.98 c-82.183-3.682-159.197,15.969-224.94,52.997L133.577,106.498z"/>
		</g>
		<g id="solutions">
			<path d="M298.088,101.146c-2.059,0-3.721,0.551-4.939,1.638c-1.224,1.088-1.846,2.489-1.846,4.168 c0,2.063,1.17,3.94,3.475,5.586c1.437,1.009,2.346,1.793,2.709,2.334c0.354,0.53,0.535,1.116,0.535,1.75 c0,0.994-0.338,1.774-1.006,2.315c-0.678,0.554-1.651,0.832-2.9,0.832c-1.715,0-3.348-0.522-4.844-1.555l-0.183-0.128 l-0.457,2.749l0.086,0.049c1.608,0.852,3.376,1.287,5.259,1.287c2.229,0,3.934-0.559,5.068-1.654 c1.139-1.1,1.717-2.51,1.717-4.191c0-1.031-0.293-1.983-0.863-2.834c-0.568-0.842-1.529-1.758-2.861-2.723 c-1.273-0.928-2.096-1.686-2.438-2.252c-0.341-0.563-0.512-1.193-0.512-1.873c0-0.836,0.332-1.564,0.986-2.182 c0.654-0.615,1.613-0.93,2.848-0.93c1.561,0,2.949,0.406,4.135,1.209l0.172,0.119l0.524-2.756l-0.104-0.041 C301.096,101.455,299.564,101.146,298.088,101.146z"/>
			<path d="M320.386,101.146c-3.106,0-5.737,1.189-7.825,3.535c-2.084,2.344-3.143,5.305-3.143,8.805 c0,2.563,0.77,4.671,2.291,6.271c1.521,1.604,3.538,2.416,5.989,2.416c3.245,0,5.905-1.258,7.894-3.733 c1.986-2.467,2.991-5.385,2.991-8.674c0-2.517-0.758-4.603-2.256-6.201C324.83,101.957,322.829,101.146,320.386,101.146z M317.811,119.77c-1.742,0-3.133-0.574-4.135-1.703c-1.009-1.133-1.52-2.664-1.52-4.553c0-2.709,0.777-5.076,2.307-7.035 c1.523-1.955,3.45-2.944,5.729-2.944c1.703,0,3.082,0.573,4.095,1.696c1.017,1.131,1.532,2.685,1.532,4.617 c0,2.561-0.732,4.883-2.174,6.898C322.217,118.752,320.252,119.77,317.811,119.77z"/>
			<path d="M366.389,114.029c-0.431,1.988-1.105,3.457-2.005,4.373c-0.896,0.906-2.141,1.365-3.709,1.365 c-1.293,0-2.339-0.379-3.11-1.115c-0.771-0.735-1.16-1.801-1.16-3.153c0-0.798,0.109-1.716,0.33-2.724l2.461-11.297h-2.707 l-2.459,11.379c-0.189,1-0.282,1.945-0.282,2.81c0,1.914,0.608,3.495,1.812,4.692c1.203,1.203,2.83,1.813,4.836,1.813 c2.375,0,4.28-0.624,5.662-1.854c1.379-1.227,2.41-3.407,3.064-6.481l2.652-12.356h-2.688L366.389,114.029z"/>
			<path d="M421.622,101.146c-3.104,0-5.737,1.189-7.827,3.535c-2.082,2.344-3.141,5.305-3.141,8.805 c0,2.563,0.771,4.671,2.291,6.271c1.52,1.604,3.538,2.416,5.989,2.416c3.245,0,5.902-1.258,7.894-3.733 c1.984-2.467,2.991-5.385,2.991-8.674c0-2.517-0.759-4.603-2.255-6.201C426.064,101.957,424.066,101.146,421.622,101.146z M419.047,119.77c-1.74,0-3.135-0.574-4.133-1.703c-1.012-1.133-1.521-2.664-1.521-4.553c0-2.709,0.778-5.076,2.309-7.035 c1.523-1.955,3.45-2.944,5.725-2.944c1.707,0,3.085,0.573,4.096,1.696c1.017,1.131,1.533,2.685,1.533,4.617 c0,2.561-0.729,4.883-2.172,6.898C423.449,118.752,421.487,119.77,419.047,119.77z"/>
			<path d="M450.488,116.934c-0.076,0.465-0.139,0.89-0.187,1.271c-0.117-0.317-0.237-0.62-0.36-0.899l-7.135-15.824 h-3.011l-4.262,20.177l-0.038,0.163h2.604l3.369-15.894c0.059-0.309,0.107-0.625,0.146-0.94c0.063,0.238,0.146,0.467,0.249,0.682 l7.438,16.152h2.803l4.29-20.172l0.035-0.168h-2.66L450.488,116.934z"/>
			<path d="M475.402,102.064c-1.55-0.609-3.082-0.92-4.557-0.92c-2.061,0-3.721,0.551-4.941,1.639 c-1.224,1.088-1.845,2.49-1.845,4.168c0,2.063,1.171,3.941,3.474,5.586c1.436,1.009,2.345,1.793,2.711,2.334 c0.354,0.531,0.534,1.117,0.534,1.75c0,0.994-0.34,1.775-1.006,2.316c-0.677,0.553-1.652,0.83-2.899,0.83 c-1.717,0-3.349-0.521-4.847-1.554l-0.18-0.128l-0.46,2.749l0.09,0.049c1.606,0.853,3.373,1.287,5.255,1.287 c2.229,0,3.934-0.56,5.07-1.653c1.139-1.101,1.715-2.511,1.715-4.192c0-1.027-0.291-1.983-0.862-2.834 c-0.565-0.839-1.529-1.757-2.86-2.724c-1.276-0.927-2.098-1.685-2.438-2.252c-0.339-0.562-0.513-1.192-0.513-1.871 c0-0.836,0.33-1.565,0.984-2.183c0.656-0.614,1.615-0.93,2.853-0.93c1.56,0,2.949,0.407,4.135,1.209l0.174,0.118l0.521-2.756 L475.402,102.064z"/>
			<polygon points="378.564,103.889 384.4,103.889 380.593,121.818 383.284,121.818 387.061,103.889 392.771,103.889 393.291,101.479 379.072,101.479"/>
			<polygon points="342.245,101.646 342.279,101.479 339.563,101.479 335.301,121.654 335.266,121.818 345.941,121.818 346.465,119.365 338.475,119.365"/>
			<polygon points="397.28,121.654 397.242,121.818 399.934,121.818 404.221,101.646 404.261,101.479 401.542,101.479"/>
		</g>
	</g>
</svg>
